Coordinates
version=1
nRows=14
nColumns=40
inDegrees=yes

Units are S.I. units (second, meters, Newtons, ...)
If the header above contains a line with 'inDegrees', this indicates whether rotational values are in degrees (yes) or radians (no).

endheader
time	pelvis_tilt	pelvis_list	pelvis_rotation	pelvis_tx	pelvis_ty	pelvis_tz	hip_flexion_r	hip_adduction_r	hip_rotation_r	knee_angle_r	knee_angle_r_beta	ankle_angle_r	subtalar_angle_r	mtp_angle_r	hip_flexion_l	hip_adduction_l	hip_rotation_l	knee_angle_l	knee_angle_l_beta	ankle_angle_l	subtalar_angle_l	mtp_angle_l	lumbar_extension	lumbar_bending	lumbar_rotation	arm_flex_r	arm_add_r	arm_rot_r	elbow_flex_r	pro_sup_r	wrist_flex_r	wrist_dev_r	arm_flex_l	arm_add_l	arm_rot_l	elbow_flex_l	pro_sup_l	wrist_flex_l	wrist_dev_l
      2.00000000	      8.02211948	     -6.96173726	      0.18184222	     -0.29088930	      1.06407245	     -1.05600154	     32.81954963	      1.55258262	     -8.56639825	     17.82255710	      0.31106230	    -14.38562801	      0.00000000	      0.00000000	      3.39173097	     -3.45837892	     -7.05680607	     21.56758200	      0.37642532	     -3.87323650	      0.00000000	      0.00000000	    -13.79267075	      3.54812849	      5.79786750	     69.54435614	    -29.18101444	     34.02622477	     46.08438269	     80.76991584	      0.00000000	      0.00000000	     75.93804631	    -22.85634381	     56.00282498	     36.62560182	     81.64918395	      0.00000000	      0.00000000
      2.00500000	      8.01574172	     -6.96156156	      0.13025049	     -0.29128894	      1.06378299	     -1.05591432	     32.84494878	      1.57674777	     -8.58802621	     17.83347227	      0.31125281	    -14.43322723	      0.00000000	      0.00000000	      3.50745973	     -3.48550119	     -7.17635690	     21.76158492	      0.37981131	     -3.80294365	      0.00000000	      0.00000000	    -13.86371325	      3.53924904	      5.81437726	     69.79575945	    -29.19633438	     34.49521551	     46.00558766	     79.92300418	      0.00000000	      0.00000000	     76.05480089	    -22.90853687	     56.15653537	     36.66314035	     81.40801457	      0.00000000	      0.00000000
      2.01000000	      7.93343036	     -6.99576923	      0.10698187	     -0.29172766	      1.06333730	     -1.05581980	     32.94916961	      1.63443954	     -8.60034473	     17.83809785	      0.31133354	    -14.37382205	      0.00000000	      0.00000000	      3.76353349	     -3.54969616	     -7.15457938	     22.05149253	      0.38487115	     -3.69357627	      0.00000000	      0.00000000	    -13.84167868	      3.57296010	      5.87627063	     69.83963439	    -29.22686565	     34.35108668	     46.05438056	     80.52715114	      0.00000000	      0.00000000	     76.08541912	    -22.84889981	     55.83838713	     36.66964932	     82.19475494	      0.00000000	      0.00000000
      2.01500000	      7.89664506	     -6.99923458	      0.02197502	     -0.29215865	      1.06295812	     -1.05564245	     33.00416463	      1.69459894	     -8.55642874	     17.84076249	      0.31138005	    -14.36952873	      0.00000000	      0.00000000	      3.93338001	     -3.58040513	     -7.20689079	     22.29405662	      0.38910469	     -3.60941547	      0.00000000	      0.00000000	    -13.88385396	      3.56456493	      5.92316457	     70.01237683	    -29.16424979	     34.44438735	     45.98030425	     80.46344558	      0.00000000	      0.00000000	     76.14825992	    -22.88714163	     55.75690592	     36.73532373	     82.21124515	      0.00000000	      0.00000000
      2.02000000	      7.85089341	     -6.99581864	     -0.03095187	     -0.29248448	      1.06253752	     -1.05551563	     33.07160309	      1.71784719	     -8.57112783	     17.85890685	      0.31169673	    -14.35311286	      0.00000000	      0.00000000	      4.10681605	     -3.60087212	     -7.22165411	     22.53573289	      0.39332274	     -3.45278983	      0.00000000	      0.00000000	    -13.89389019	      3.53807229	      6.01330430	     70.08592072	    -29.22112374	     34.51776346	     46.02871694	     79.89411048	      0.00000000	      0.00000000	     76.29880391	    -22.80463265	     55.90253782	     36.61754489	     82.56182211	      0.00000000	      0.00000000
      2.02500000	      7.79149392	     -7.02075625	     -0.04624495	     -0.29301385	      1.06206715	     -1.05532921	     33.16847918	      1.76075508	     -8.58844912	     17.89187355	      0.31227210	    -14.35126763	      0.00000000	      0.00000000	      4.31772988	     -3.65955359	     -7.22456025	     22.77427315	      0.39748605	     -3.37780108	      0.00000000	      0.00000000	    -13.91051542	      3.54771687	      6.05219529	     70.22574838	    -29.23784160	     34.57022458	     45.99503240	     80.01451625	      0.00000000	      0.00000000	     76.42678670	    -22.77066002	     55.95610142	     36.60428229	     82.39778125	      0.00000000	      0.00000000
      2.03000000	      7.80880966	     -6.99615682	     -0.11405047	     -0.29316775	      1.06180314	     -1.05534303	     33.13756670	      1.77069256	     -8.53981400	     17.88136315	      0.31208866	    -14.35466000	      0.00000000	      0.00000000	      4.40550005	     -3.64796687	     -7.27868752	     22.99740762	      0.40138048	     -3.27649648	      0.00000000	      0.00000000	    -13.97325802	      3.52712138	      6.09574656	     70.32985621	    -29.21202222	     34.55946661	     45.97267901	     80.33488704	      0.00000000	      0.00000000	     76.45877451	    -22.78560865	     55.91969671	     36.63638217	     82.26731677	      0.00000000	      0.00000000
      2.03500000	      7.74542466	     -7.00799809	     -0.14238229	     -0.29371193	      1.06130981	     -1.05518503	     33.23029420	      1.80546017	     -8.53369735	     17.88606474	      0.31217072	    -14.40436780	      0.00000000	      0.00000000	      4.65098202	     -3.69909917	     -7.30793753	     23.29998534	      0.40666146	     -3.16892604	      0.00000000	      0.00000000	    -13.99174650	      3.52083093	      6.14641953	     70.44340511	    -29.22556309	     34.58083976	     45.97474819	     79.95405538	      0.00000000	      0.00000000	     76.59992071	    -22.74353719	     56.03105768	     36.61195678	     82.21914970	      0.00000000	      0.00000000
      2.04000000	      7.65706089	     -6.97185440	     -0.13000781	     -0.29412614	      1.06071844	     -1.05521072	     33.36087302	      1.74990289	     -8.61884611	     17.95535653	      0.31338009	    -14.28619128	      0.00000000	      0.00000000	      4.91950763	     -3.66572877	     -7.20053474	     23.59131449	      0.41174611	     -3.01973890	      0.00000000	      0.00000000	    -14.00339817	      3.48416336	      5.91113566	     70.70649548	    -28.96327420	     34.76764762	     45.80802428	     79.66848814	      0.00000000	      0.00000000	     76.99343308	    -23.15465054	     56.88534807	     36.75934835	     82.30303427	      0.00000000	      0.00000000
      2.04500000	      7.61947801	     -6.99691562	     -0.19677891	     -0.29455493	      1.06027123	     -1.05510316	     33.41735620	      1.82319709	     -8.49148801	     17.94958930	      0.31327943	    -14.32280115	      0.00000000	      0.00000000	      5.13538521	     -3.73440686	     -7.31131517	     23.92857795	      0.41763247	     -2.91648169	      0.00000000	      0.00000000	    -13.98788321	      3.49760328	      6.22502002	     70.79402481	    -29.29045249	     35.00644377	     45.86837030	     79.16567515	      0.00000000	      0.00000000	     76.91149237	    -22.69013687	     56.52214685	     36.53327060	     81.86408021	      0.00000000	      0.00000000
      2.05000000	      7.58142907	     -7.03961609	     -0.17093360	     -0.29495231	      1.05982051	     -1.05515134	     33.44782303	      1.84696839	     -8.61661546	     17.91456525	      0.31266815	    -14.36523222	      0.00000000	      0.00000000	      5.34262626	     -3.79086779	     -7.21167247	     24.20789433	      0.42250746	     -2.79219356	      0.00000000	      0.00000000	    -14.02914982	      3.58812258	      6.12365012	     71.00360538	    -29.13511282	     34.94260826	     45.72682514	     80.22243064	      0.00000000	      0.00000000	     76.81216875	    -22.84918886	     55.88475018	     36.77872238	     82.43743126	      0.00000000	      0.00000000
      2.05500000	      7.53890432	     -7.05783813	     -0.18943049	     -0.29541331	      1.05927137	     -1.05511640	     33.51713580	      1.87926605	     -8.61431391	     17.93293845	      0.31298882	    -14.34809394	      0.00000000	      0.00000000	      5.56397277	     -3.83307255	     -7.19824637	     24.51153773	      0.42780704	     -2.66128891	      0.00000000	      0.00000000	    -14.06081011	      3.59886965	      6.17123873	     71.15171723	    -29.18334564	     35.02325178	     45.72260083	     80.16626194	      0.00000000	      0.00000000	     76.94245477	    -22.79102336	     55.91616292	     36.73937703	     82.39284062	      0.00000000	      0.00000000
      2.06000000	      7.50876690	     -7.05628813	     -0.23643500	     -0.29589607	      1.05876922	     -1.05498287	     33.57268148	      1.91345449	     -8.57656183	     17.94300053	      0.31316444	    -14.33696330	      0.00000000	      0.00000000	      5.77911857	     -3.86575639	     -7.22837574	     24.84000526	      0.43353988	     -2.53885874	      0.00000000	      0.00000000	    -14.10872508	      3.57452615	      6.22968361	     71.26899205	    -29.17486734	     34.98234070	     45.70470754	     79.98360588	      0.00000000	      0.00000000	     77.10633491	    -22.75898295	     56.04197920	     36.68530125	     82.43143365	      0.00000000	      0.00000000
      2.06500000	      7.45375873	     -7.09450050	     -0.25800589	     -0.29622850	      1.05819376	     -1.05490633	     33.63369960	      1.96887667	     -8.54227098	     17.92656277	      0.31287754	    -14.32848017	      0.00000000	      0.00000000	      6.03127011	     -3.93757497	     -7.20425488	     25.20199213	      0.43985774	     -2.39013710	      0.00000000	      0.00000000	    -14.10639519	      3.62172241	      6.24136645	     71.39830630	    -29.13458042	     34.92485766	     45.64968379	     80.62347184	      0.00000000	      0.00000000	     77.19978612	    -22.75406486	     56.13789599	     36.67253723	     82.04805708	      0.00000000	      0.00000000
